
<svg width="98px" height="21px" viewBox="0 0 98 21" version="1.1" xmlns="http://www.w3.org/2000/svg" xmlns:xlink="http://www.w3.org/1999/xlink">
    <g id="Login" stroke="none" stroke-width="1" fill="none" fill-rule="evenodd">
        <g id="Minimal-Login-Page" transform="translate(-50.000000, -53.000000)" fill-rule="nonzero">
            <g id="Logo" transform="translate(50.000000, 50.000000)">
                <g transform="translate(0.000000, 3.600000)" fill="#000000" id="Shape">
                    <path d="M14.9647491,1.99999988 L16.353499,4.10949976 L16.929749,4.9999997 L17.9999989,4.9999997 L20.9999987,4.9999997 C21.5419987,4.9999997 21.9999987,5.47224967 21.9999987,6.03124964 L21.9999987,17.015749 C21.9999987,17.568249 21.5607487,18.0002489 20.9999987,18.0002489 L2.99999982,18.0002489 C2.44849985,18.0002489 1.99999988,17.551749 1.99999988,17.000249 L1.99999988,6.01549964 C1.99999988,5.45574967 2.44849985,4.9999997 2.99999982,4.9999997 L5.99999964,4.9999997 L7.07024958,4.9999997 L7.66399954,4.10949976 L9.07024946,1.99999988 L14.9999991,1.99999988 L14.9647491,1.99999988 Z M15.999999,0 L7.99999952,0 L5.99999964,2.99999982 L2.99999982,2.99999982 C1.34249992,2.99999982 0,4.35849974 0,6.01549964 L0,16.999999 C0,18.6574989 1.34249992,19.9999988 2.99999982,19.9999988 L20.9999987,19.9999988 C22.6574986,19.9999988 23.9999986,18.6727489 23.9999986,17.015499 L23.9999986,6.03099964 C23.9999986,4.37349974 22.6574986,2.99974982 20.9999987,2.99974982 L17.9999989,2.99974982 L15.999999,0 L15.999999,0 Z"></path>
                    <path d="M11.9999993,7.99999952 C13.6542492,7.99999952 14.9999991,9.34574944 14.9999991,10.9999993 C14.9999991,12.6542492 13.6539992,13.9999992 11.9999993,13.9999992 C10.3457494,13.9999992 8.99999946,12.6542492 8.99999946,10.9999993 C8.99999946,9.34574944 10.3454994,7.99999952 11.9999993,7.99999952 L11.9999993,7.99999952 Z M11.9999993,5.99999964 C9.23849945,5.99999964 6.99999958,8.23874951 6.99999958,10.9999993 C6.99999958,13.7612492 9.23874945,15.999999 11.9999993,15.999999 C14.7614991,15.999999 16.999999,13.7614992 16.999999,10.9999993 C16.999999,8.23849951 14.7614991,5.99999964 11.9999993,5.99999964 L11.9999993,5.99999964 Z"></path>
                </g>
                <path d="M37.6639978,14.8159986 L35.5199979,14.8159986 L35.5199979,19.1999984 L33.439998,19.1999984 L33.439998,7.99999905 L37.6639978,7.99999905 C39.9519976,7.99999905 41.1679975,9.35999897 41.1679975,11.4079988 C41.1679975,13.4559987 39.9519976,14.8159986 37.6639978,14.8159986 Z M35.5199979,12.8959988 L37.5839978,12.8959988 C38.5599977,12.8959988 39.0559977,12.3999988 39.0559977,11.4079988 C39.0559977,10.4159989 38.5599977,9.91999893 37.5839978,9.91999893 L35.5199979,9.91999893 L35.5199979,12.8959988 Z M42.7519975,19.1999984 L42.7519975,7.87199905 L44.7359973,7.87199905 L44.7359973,12.4319988 C45.3279973,11.4879988 46.1919972,11.0079989 47.2959972,11.0079989 C48.8479971,11.0079989 49.807997,11.8399988 49.807997,13.4399987 L49.807997,19.1999984 L47.8239971,19.1999984 L47.8239971,14.1439987 C47.8239971,13.1839987 47.4239972,12.7039988 46.6239972,12.7039988 C45.5999973,12.7039988 44.7359973,13.7599987 44.7359973,15.7919986 L44.7359973,19.1999984 L42.7519975,19.1999984 Z M52.8319969,18.1599984 C52.0959969,17.3759985 51.7279969,16.3679985 51.7279969,15.1679986 C51.7279969,13.9679987 52.0959969,12.9759987 52.8319969,12.1919988 C53.5679968,11.4079988 54.5599967,11.0079989 55.8239967,11.0079989 C57.0879966,11.0079989 58.0799965,11.4079988 58.8159965,12.1919988 C59.5519965,12.9759987 59.9199964,13.9679987 59.9199964,15.1679986 C59.9199964,16.3679985 59.5519965,17.3759985 58.8159965,18.1599984 C58.0799965,18.9439984 57.0879966,19.3279984 55.8239967,19.3279984 C54.5599967,19.3279984 53.5679968,18.9439984 52.8319969,18.1599984 Z M54.3519968,13.4239987 C53.9839968,13.8879987 53.8079968,14.4799987 53.8079968,15.1679986 C53.8079968,15.8559986 53.9839968,16.4479985 54.3519968,16.9279985 C54.7199967,17.3919985 55.1999967,17.6319985 55.8239967,17.6319985 C56.4479966,17.6319985 56.9279966,17.3919985 57.2959966,16.9279985 C57.6639966,16.4479985 57.8399966,15.8559986 57.8399966,15.1679986 C57.8399966,14.4799987 57.6639966,13.8879987 57.2959966,13.4239987 C56.9279966,12.9439988 56.4479966,12.7039988 55.8239967,12.7039988 C55.1999967,12.7039988 54.7199967,12.9439988 54.3519968,13.4239987 Z M65.9839961,17.4399985 L66.447996,19.0399984 C66.0319961,19.2319984 65.5999961,19.3279984 65.1359961,19.3279984 C63.2799962,19.3279984 62.1759963,18.3199984 62.1759963,16.3519985 L62.1759963,12.8319988 L60.9279964,12.8319988 L60.9279964,11.1359989 L62.1759963,11.1359989 L62.1759963,9.11999898 L64.1599962,7.87199905 L64.1599962,11.1359989 L66.287996,11.1359989 L66.287996,12.8319988 L64.1599962,12.8319988 L64.1599962,16.3199986 C64.1599962,17.2799985 64.5119962,17.6319985 65.2159961,17.6319985 C65.4879961,17.6319985 65.7439961,17.5679985 65.9839961,17.4399985 Z M68.6239959,18.1599984 C67.887996,17.3759985 67.519996,16.3679985 67.519996,15.1679986 C67.519996,13.9679987 67.887996,12.9759987 68.6239959,12.1919988 C69.3599959,11.4079988 70.3519958,11.0079989 71.6159957,11.0079989 C72.8799957,11.0079989 73.8719956,11.4079988 74.6079956,12.1919988 C75.3439955,12.9759987 75.7119955,13.9679987 75.7119955,15.1679986 C75.7119955,16.3679985 75.3439955,17.3759985 74.6079956,18.1599984 C73.8719956,18.9439984 72.8799957,19.3279984 71.6159957,19.3279984 C70.3519958,19.3279984 69.3599959,18.9439984 68.6239959,18.1599984 Z M70.1439958,13.4239987 C69.7759958,13.8879987 69.5999959,14.4799987 69.5999959,15.1679986 C69.5999959,15.8559986 69.7759958,16.4479985 70.1439958,16.9279985 C70.5119958,17.3919985 70.9919958,17.6319985 71.6159957,17.6319985 C72.2399957,17.6319985 72.7199957,17.3919985 73.0879956,16.9279985 C73.4559956,16.4479985 73.6319956,15.8559986 73.6319956,15.1679986 C73.6319956,14.4799987 73.4559956,13.8879987 73.0879956,13.4239987 C72.7199957,12.9439988 72.2399957,12.7039988 71.6159957,12.7039988 C70.9919958,12.7039988 70.5119958,12.9439988 70.1439958,13.4239987 Z M84.319995,16.0639986 L84.319995,19.1999984 L82.3359951,19.1999984 L82.3359951,13.8239987 C82.3359951,13.0719987 81.9999951,12.7039988 81.3439952,12.7039988 C80.3199952,12.7039988 79.5999953,13.9359987 79.5999953,16.2399986 L79.5999953,19.1999984 L77.6159954,19.1999984 L77.6159954,11.1359989 L79.5999953,11.1359989 L79.5999953,12.4319988 C80.2239952,11.4879988 81.0079952,11.0079989 81.9199951,11.0079989 C82.9599951,11.0079989 83.839995,11.5679988 84.175995,12.6719988 C84.7999949,11.5679988 85.6159949,11.0079989 86.6399948,11.0079989 C88.1279947,11.0079989 89.0399947,11.9359988 89.0399947,13.4879987 L89.0399947,19.1999984 L87.0559948,19.1999984 L87.0559948,13.8239987 C87.0559948,13.0719987 86.7199948,12.7039988 86.0639949,12.7039988 C85.0399949,12.7039988 84.319995,13.8879987 84.319995,16.0639986 Z M92.7039945,13.6319987 L91.0239946,13.2479987 C91.2799946,11.9039988 92.4799945,11.0079989 94.0959944,11.0079989 C96.3519943,11.0079989 97.4879942,12.1279988 97.4879942,14.3839987 L97.4879942,19.1999984 L95.8559943,19.1999984 L95.6479943,18.1759984 C95.0239943,18.9439984 94.1919944,19.3279984 93.1679944,19.3279984 C91.7439945,19.3279984 90.7199946,18.4319984 90.7199946,16.8799985 C90.7199946,15.2799986 92.1119945,14.2399987 94.1599944,14.2399987 L95.5039943,14.2399987 L95.5039943,13.8879987 C95.5039943,13.1039987 95.0399943,12.7039988 94.0959944,12.7039988 C93.3759944,12.7039988 92.9119945,13.0079987 92.7039945,13.6319987 Z M92.7999945,16.8479985 C92.7999945,17.2799985 93.1039945,17.6319985 93.6319944,17.6319985 C94.1279944,17.6319985 94.5599944,17.4719985 94.9279943,17.1679985 C95.3119943,16.8639985 95.5039943,16.4639985 95.5039943,15.9679986 L95.5039943,15.8079986 L94.1759944,15.8079986 C93.2639944,15.8079986 92.7999945,16.1599986 92.7999945,16.8479985 Z" id="Photoma" fill="#252529"></path>
            </g>
        </g>
    </g>
</svg>